<?xml version="1.0" encoding="UTF-8"?>
<svg id="Layer_2" data-name="Layer 2" xmlns="http://www.w3.org/2000/svg" viewBox="0 0 150 150">
  <defs>
    <style>
      .cls-1 {
        fill: #00005b;
      }

      .cls-1, .cls-2 {
        stroke-width: 0px;
      }

      .cls-2 {
        fill: #99f;
      }
    </style>
  </defs>
  <g id="Layer_1-2" data-name="Layer 1">
    <g>
      <path class="cls-1" d="M123.44,0H26.56C11.89,0,0,12.2,0,27.24v95.51c0,15.05,11.89,27.24,26.56,27.24h96.87c14.67,0,26.56-12.2,26.56-27.24V27.24c0-15.05-11.89-27.24-26.56-27.24Z"/>
      <g>
        <path class="cls-2" d="M62.02,91.09h-22.61l-4.6,14.32c-.06.26-.21.49-.43.65-.21.16-.48.24-.75.23h-11.45c-.65,0-.88-.36-.69-1.08l19.57-56.14c.2-.59.39-1.16.59-1.91.26-1.31.39-2.63.39-3.96-.01-.09,0-.19.03-.28.03-.09.08-.17.15-.24.07-.07.15-.12.24-.15.09-.03.18-.04.28-.03h15.56c.46,0,.72.16.78.49l22.22,62.31c.2.65,0,.98-.59.98h-12.72c-.22.02-.44-.03-.62-.16-.18-.13-.31-.31-.36-.53l-4.99-14.51ZM42.93,79.02h15.46c-.39-1.3-.85-2.77-1.37-4.4-.52-1.63-1.08-3.38-1.66-5.24-.59-1.86-1.17-3.72-1.76-5.58-.59-1.86-1.13-3.65-1.62-5.38-.49-1.73-.93-3.31-1.32-4.75h-.1c-.55,2.64-1.24,5.26-2.06,7.83-.91,2.94-1.84,5.94-2.79,9-.95,3.07-1.88,5.91-2.79,8.51Z"/>
        <path class="cls-2" d="M117.31,85.51h-19.28c.24,1.91.87,3.74,1.86,5.39,1.09,1.63,2.64,2.91,4.45,3.67,2.45,1.06,5.11,1.58,7.78,1.53,2.12-.04,4.23-.27,6.31-.69,1.86-.25,3.68-.73,5.43-1.41.33-.26.49-.1.49.49v9.3c.02.25-.03.51-.15.73-.11.18-.26.33-.44.44-1.94.86-3.97,1.46-6.06,1.81-2.84.53-5.72.78-8.61.73-4.63,0-8.52-.72-11.65-2.15-2.96-1.3-5.57-3.28-7.63-5.77-1.92-2.35-3.36-5.06-4.21-7.98-.84-2.88-1.27-5.86-1.27-8.86,0-3.27.5-6.53,1.52-9.64.98-3.04,2.52-5.86,4.55-8.32,2-2.43,4.51-4.4,7.34-5.77,2.87-1.4,6.26-1.91,10.18-1.91,3.25-.08,6.47.55,9.44,1.86,2.5,1.07,4.7,2.73,6.41,4.84,1.6,2.07,2.83,4.4,3.62,6.9.77,2.4,1.17,4.91,1.17,7.44,0,1.44-.05,2.74-.15,3.91-.1,1.17-.18,2.02-.24,2.54-.03.22-.13.41-.29.56-.16.14-.37.22-.59.22-.39,0-1.06.05-2.01.15-.95.1-2.12.16-3.52.2-1.4.03-2.89-.21-4.45-.21ZM98.03,76.6h12.82c1.57,0,2.72-.02,3.47-.05.5-.05.99-.21,1.42-.47v-.59c-.02-.77-.15-1.52-.39-2.25-.53-1.67-1.59-3.12-3.02-4.13-1.43-1.01-3.16-1.52-4.91-1.45-1.65-.1-3.29.28-4.72,1.1-1.43.82-2.6,2.03-3.35,3.5-.67,1.37-1.12,2.83-1.32,4.34h0Z"/>
      </g>
    </g>
  </g>
</svg>