<?xml version="1.0" encoding="UTF-8"?>
<svg id="Layer_2" data-name="Layer 2" xmlns="http://www.w3.org/2000/svg" viewBox="0 0 150 150">
  <defs>
    <style>
      .cls-1 {
        fill: #5faa44;
      }

      .cls-1, .cls-2, .cls-3 {
        fill-rule: evenodd;
        stroke-width: 0px;
      }

      .cls-2 {
        fill: #fff;
      }

      .cls-3 {
        fill: #afd4a1;
      }
    </style>
  </defs>
  <g id="Layer_1-2" data-name="Layer 1">
    <g>
      <polygon class="cls-1" points="0 0 150 0 150 150 0 150 0 0 0 0"/>
      <path class="cls-2" d="M0,28.31c5.25,4.33,11.32,11.1,16.44,16.22,5.54,5.54,10.52,10.48,16.07,16.02l24.11,24.02c3.17,3.18,3.52,4.9,1.91,7.41-3.88,6.02-7.95,1.55-11.42-1.91C40.08,83.07,3.96,45.9,0,43.8v29.26c3.36,2.37,7.03,6.67,10.17,9.81,3.54,3.53,6.5,6.48,10.04,10.01,6.42,6.42,13.03,13.72,19.68,19.63,3.29,2.92,8.8,4.9,12.95,7.13,4.38,2.35,8.15,4.47,12.47,6.72,5.63,2.93,37.12,23.11,27.12,2.57l-23.52-44.63L27.54,43.05C23.15,38.66,3.13,18.06,0,16.01v12.29h0Z"/>
      <polygon class="cls-3" points="123.74 90.34 94.55 90.36 98.57 108.02 119.83 108.09 123.74 90.34 123.74 90.34"/>
      <path class="cls-3" d="M49.68,0h-5.08c3.52,13.05,15.35,32.45,21.9,42.37,9.33,14.11,17.42,22.99,28.46,35.08C80.21,58.47,54.74,20.63,49.68,0h0ZM109.1,0v80.54h0s-.01,0-.01,0h-.33c-.81,0-1.83-.05-3.13-.06C99.25,52.13,91.12,32.78,87.63,0h21.47ZM70.17,0h-14.06c4.41,18.98,28.85,65.07,45.35,78.88C88.69,57.07,77.03,28.09,70.17,0h0Z"/>
      <path class="cls-3" d="M150,43.56c-9,13.42-16.94,22.15-27.67,33.89,7.77-9.99,18.5-25.2,27.67-40.38v6.5h0ZM108.19,0v80.54h0s.01,0,.01,0h.33c.81,0,1.83-.05,3.13-.06C118.04,52.13,126.17,32.78,129.66,0h-21.47ZM147.12,0h2.88v28.13c-9.74,19.75-23.59,41.89-34.17,50.75C128.6,57.07,140.26,28.09,147.12,0h0Z"/>
    </g>
  </g>
</svg>