<?xml version="1.0" encoding="UTF-8"?>
<svg id="Layer_2" data-name="Layer 2" xmlns="http://www.w3.org/2000/svg" viewBox="0 0 150 150">
  <defs>
    <style>
      .cls-1 {
        fill: #31a8ff;
      }

      .cls-1, .cls-2 {
        stroke-width: 0px;
      }

      .cls-2 {
        fill: #001e36;
      }
    </style>
  </defs>
  <g id="Layer_1-2" data-name="Layer 1">
    <g>
      <g id="Outline_no_shadow" data-name="Outline no shadow">
        <path class="cls-2" d="M26.56,0h96.87c14.69,0,26.56,12.18,26.56,27.24v95.51c0,15.06-11.87,27.24-26.56,27.24H26.56c-14.69,0-26.56-12.18-26.56-27.24V27.24C0,12.18,11.87,0,26.56,0Z"/>
      </g>
      <g>
        <path class="cls-1" d="M31.54,105.45v-61.93c0-.42.18-.66.6-.66,1.02,0,1.99,0,3.37-.06,1.44-.06,2.95-.06,4.57-.12,1.63-.06,3.37-.06,5.24-.12,1.87-.06,3.67-.06,5.48-.06,4.94,0,9.03.6,12.4,1.87,3.01,1.02,5.78,2.71,8.06,4.94,1.93,1.93,3.43,4.27,4.39,6.86.9,2.53,1.38,5.12,1.38,7.82,0,5.18-1.2,9.45-3.61,12.82-2.41,3.37-5.78,5.9-9.69,7.34-4.09,1.5-8.61,2.05-13.54,2.05-1.44,0-2.41,0-3.01-.06-.6-.06-1.44-.06-2.59-.06v19.32c.06.42-.24.78-.66.84h-11.68c-.48,0-.72-.24-.72-.78ZM44.66,54.48v20.22c.84.06,1.62.12,2.35.12h3.19c2.35,0,4.69-.36,6.92-1.08,1.93-.54,3.61-1.69,4.94-3.19,1.26-1.5,1.87-3.55,1.87-6.2.06-1.87-.42-3.73-1.38-5.36-1.02-1.56-2.47-2.77-4.21-3.43-2.23-.9-4.63-1.26-7.1-1.2-1.56,0-2.95,0-4.09.06-1.2-.06-2.05,0-2.47.06h0Z"/>
        <path class="cls-1" d="M114.6,71.03c-1.81-.96-3.73-1.63-5.78-2.05-2.23-.48-4.45-.78-6.74-.78-1.2-.06-2.47.12-3.61.42-.78.18-1.44.6-1.87,1.2-.3.48-.48,1.08-.48,1.62s.24,1.08.6,1.56c.54.66,1.26,1.2,2.05,1.62,1.38.72,2.83,1.38,4.27,1.99,3.25,1.08,6.38,2.59,9.27,4.39,1.99,1.26,3.61,2.95,4.75,5,.96,1.93,1.44,4.03,1.38,6.2.06,2.83-.78,5.66-2.35,8-1.69,2.41-4.03,4.27-6.74,5.36-2.95,1.26-6.56,1.93-10.89,1.93-2.77,0-5.48-.24-8.19-.78-2.11-.36-4.21-1.02-6.14-1.93-.42-.24-.72-.66-.66-1.14v-10.47c0-.18.06-.42.24-.54.18-.12.36-.06.54.06,2.35,1.38,4.81,2.35,7.46,2.95,2.29.6,4.69.9,7.1.9s3.91-.3,5-.84c.96-.42,1.62-1.44,1.62-2.53,0-.84-.48-1.63-1.44-2.41-.96-.78-2.95-1.69-5.9-2.83-3.07-1.08-5.9-2.53-8.55-4.33-1.87-1.32-3.43-3.07-4.57-5.12-.96-1.93-1.44-4.03-1.38-6.14,0-2.59.72-5.06,2.05-7.28,1.5-2.41,3.73-4.33,6.32-5.54,2.83-1.44,6.38-2.11,10.65-2.11,2.47,0,5,.18,7.46.54,1.81.24,3.55.72,5.18,1.38.24.06.48.3.6.54.06.24.12.48.12.72v9.81c0,.24-.12.48-.3.6-.54.12-.84.12-1.08,0Z"/>
      </g>
    </g>
  </g>
</svg>