<?xml version="1.0" encoding="UTF-8"?>
<svg id="Layer_2" data-name="Layer 2" xmlns="http://www.w3.org/2000/svg" viewBox="0 0 1080 1080">
  <defs>
    <style>
      .cls-1 {
        fill: #ff4f24;
      }

      .cls-1, .cls-2, .cls-3 {
        stroke-width: 0px;
      }

      .cls-2 {
        fill: none;
      }

      .cls-3 {
        fill: #fff;
      }
    </style>
  </defs>
  <g id="Layer_1-2" data-name="Layer 1">
    <g>
      <rect class="cls-1" x="40" y="40" width="1000" height="1000" rx="50" ry="50"/>
      <path class="cls-3" d="M990,57.5c17.92,0,32.5,14.58,32.5,32.5v900c0,17.92-14.58,32.5-32.5,32.5H90c-17.92,0-32.5-14.58-32.5-32.5V90c0-17.92,14.58-32.5,32.5-32.5h900M990,55H90c-19.33,0-35,15.67-35,35v900c0,19.33,15.67,35,35,35h900c19.33,0,35-15.67,35-35V90c0-19.33-15.67-35-35-35h0Z"/>
      <rect class="cls-2" width="1080" height="1080"/>
      <g>
        <path class="cls-3" d="M382.74,409.18c-41.11,23.65-66.45,67.46-66.45,114.89v172c17.15-49.03,51.36-90.25,96.38-116.15l284.58-163.73c41.11-23.65,66.44-67.46,66.44-114.89v-111.29l-380.96,219.18Z"/>
        <path class="cls-3" d="M316.3,866.06v173.94h155.78v-139.64c0-48.14,25.73-92.6,67.46-116.59l108.18-62.18c41.73-23.99,67.46-68.45,67.46-116.59v-106.59l-282.73,165.23c-71.94,42.04-116.16,119.11-116.16,202.43Z"/>
      </g>
    </g>
  </g>
</svg>