<?xml version="1.0" encoding="UTF-8"?>
<svg id="Layer_2" data-name="Layer 2" xmlns="http://www.w3.org/2000/svg" viewBox="0 0 150 150">
  <defs>
    <style>
      .cls-1 {
        fill: #300;
      }

      .cls-1, .cls-2 {
        stroke-width: 0px;
      }

      .cls-2 {
        fill: #ff9a00;
      }
    </style>
  </defs>
  <g id="Layer_1-2" data-name="Layer 1">
    <g>
      <path id="_16" data-name=" 16" class="cls-1" d="M23.44,0h103.13c12.94,0,23.44,10.5,23.44,23.44v103.13c0,12.94-10.5,23.44-23.44,23.44H23.44c-12.94,0-23.44-10.5-23.44-23.44V23.44C0,10.5,10.5,0,23.44,0Z"/>
      <g>
        <path id="_30" data-name=" 30" class="cls-2" d="M73.12,90.13h-21.43l-4.38,14.32c-.12.51-.59.86-1.11.83h-10.86c-.62,0-.84-.34-.65-1.02l18.51-53.44c.19-.56.37-1.19.56-1.9.25-1.04.38-2.1.37-3.17-.04-.31.17-.6.49-.65.05,0,.11,0,.16,0h14.75c.43,0,.68.16.74.46l21.12,58.8c.19.62,0,.93-.56.93h-12.06c-.43.05-.83-.23-.93-.65l-4.71-14.5ZM54.91,80.26h15.71c-.37-1.24-1.65-4.1-2.14-5.64-.5-1.55-1.18-2.78-1.73-4.54-.56-1.76-1.11-3.53-1.67-5.29-.56-1.76-1.07-3.47-1.54-5.1-.47-1.64-.88-3.14-1.25-4.5h-.09c-.52,2.51-1.17,4.98-1.95,7.42-.87,2.78-1.75,5.63-2.64,8.54-.89,2.91-1.82,6.64-2.69,9.11h0Z"/>
        <path id="_31" data-name=" 31" class="cls-2" d="M103.94,54.78c-1.91.08-3.77-.67-5.1-2.04-1.33-1.43-2.03-3.34-1.95-5.29-.07-1.94.69-3.81,2.08-5.15,1.38-1.33,3.24-2.04,5.15-1.99,1.95-.11,3.86.62,5.24,1.99,1.29,1.4,1.98,3.25,1.9,5.15.08,1.96-.64,3.87-2,5.29-1.41,1.39-3.35,2.13-5.33,2.04ZM97.93,104.36v-42.43c0-.56.25-.84.74-.84h10.54c.49,0,.74.28.74.84v42.43c0,.62-.25.93-.74.93h-10.45c-.56,0-.84-.31-.84-.93Z"/>
      </g>
    </g>
  </g>
</svg>