<?xml version="1.0" encoding="UTF-8"?>
<svg id="Layer_2" data-name="Layer 2" xmlns="http://www.w3.org/2000/svg" viewBox="0 0 153 150">
  <defs>
    <style>
      .cls-1 {
        fill: #00005b;
      }

      .cls-1, .cls-2 {
        stroke-width: 0px;
      }

      .cls-2 {
        fill: #99f;
      }
    </style>
  </defs>
  <g id="Layer_1-2" data-name="Layer 1">
    <g>
      <path class="cls-1" d="M27.09,0h98.81c14.98,0,27.09,12.18,27.09,27.24v95.51c0,15.06-12.11,27.24-27.09,27.24H27.09c-14.98,0-27.09-12.18-27.09-27.24V27.24C0,12.18,12.11,0,27.09,0Z"/>
      <g>
        <path class="cls-2" d="M34.22,106.69v-63.15c0-.43.18-.68.61-.68,1.04,0,2.03,0,3.44-.06,1.47-.06,3.01-.06,4.66-.12s3.44-.06,5.34-.12,3.74-.06,5.58-.06c5.03,0,9.21.61,12.64,1.9,3.07,1.04,5.89,2.76,8.22,5.03,1.96,1.96,3.5,4.36,4.48,7,.92,2.58,1.41,5.22,1.41,7.98,0,5.28-1.23,9.64-3.68,13.07s-5.89,6.01-9.88,7.49c-4.17,1.53-8.78,2.09-13.81,2.09-1.47,0-2.45,0-3.07-.06s-1.47-.06-2.64-.06v19.7c.06.43-.25.8-.68.86h-11.91c-.49,0-.74-.25-.74-.8h0ZM47.59,54.71v20.62c.86.06,1.66.12,2.39.12h3.25c2.39,0,4.79-.37,7.06-1.1,1.96-.55,3.68-1.72,5.03-3.25,1.29-1.53,1.9-3.62,1.9-6.32.06-1.9-.43-3.81-1.41-5.46-1.04-1.6-2.52-2.82-4.3-3.5-2.27-.92-4.73-1.29-7.24-1.23-1.6,0-3.01,0-4.17.06-1.23-.06-2.09,0-2.52.06h0Z"/>
        <path class="cls-2" d="M89.2,58.27h10.74c.61,0,1.1.43,1.29.98.18.49.31.98.37,1.53.12.61.25,1.29.31,1.9.06.68.12,1.41.12,2.21,1.84-2.15,4.05-3.93,6.57-5.28,2.82-1.6,6.08-2.39,9.33-2.39.43-.06.8.25.86.68v12.21c0,.49-.31.68-.98.68-2.21-.06-4.48.12-6.63.61-1.78.37-3.5.92-5.16,1.66-1.17.55-2.27,1.29-3.13,2.27v31.3c0,.61-.25.86-.8.86h-12.09c-.49.06-.92-.25-.98-.74v-34.25c0-1.47,0-3.01-.06-4.6s-.06-3.19-.12-4.79c0-1.41-.12-2.76-.25-4.17-.06-.31.12-.61.43-.68,0-.06.12-.06.18,0h0Z"/>
      </g>
    </g>
  </g>
</svg>