<?xml version="1.0" encoding="UTF-8"?>
<svg id="Layer_2" data-name="Layer 2" xmlns="http://www.w3.org/2000/svg" viewBox="0 0 145.71 150">
  <defs>
    <style>
      .cls-1 {
        fill: #ff2d20;
        stroke-width: 0px;
      }
    </style>
  </defs>
  <g id="Layer_1-2" data-name="Layer 1">
    <path class="cls-1" d="M145.63,33.93c.05.2.08.41.08.61v32.2c0,.84-.45,1.62-1.18,2.04l-27.02,15.56v30.84c0,.84-.45,1.61-1.17,2.04l-56.41,32.47c-.13.07-.27.12-.41.17-.05.02-.1.05-.16.06-.39.1-.81.1-1.2,0-.06-.02-.12-.05-.18-.08-.13-.05-.26-.09-.39-.16L1.18,117.21c-.73-.42-1.18-1.2-1.18-2.04V18.59c0-.21.03-.42.08-.62.02-.07.06-.13.08-.2.04-.12.09-.25.15-.36.04-.08.11-.14.16-.21.07-.09.13-.19.21-.27.07-.07.16-.12.23-.18.09-.07.16-.15.26-.2h0L29.38.31c.73-.42,1.62-.42,2.35,0l28.2,16.24h0c.09.06.17.13.26.2.08.06.16.11.23.18.08.09.14.18.21.28.05.07.12.13.16.21.07.12.11.24.15.36.02.07.06.13.08.2.05.2.08.41.08.61v60.33l23.5-13.53v-30.84c0-.21.03-.41.08-.61.02-.07.06-.13.08-.2.05-.12.09-.25.15-.36.04-.08.11-.14.16-.21.07-.09.13-.19.21-.27.07-.07.15-.12.23-.18.09-.07.16-.15.26-.2h0l28.2-16.24c.73-.42,1.62-.42,2.35,0l28.2,16.24c.1.06.18.13.26.2.07.06.16.11.23.18.08.09.14.18.21.28.05.07.12.13.16.21.07.11.11.24.15.36.03.07.06.13.08.2h0ZM141.01,65.39v-26.77l-9.87,5.68-13.63,7.85v26.77l23.51-13.53h0ZM112.81,113.82v-26.79l-13.41,7.66-38.29,21.86v27.04l51.71-29.77ZM4.7,22.65v91.17l51.7,29.76v-27.04l-27.01-15.29h0s-.01-.01-.01-.01c-.09-.05-.17-.13-.25-.19-.07-.06-.16-.11-.22-.17h0c-.08-.08-.13-.17-.19-.26-.06-.08-.13-.15-.18-.23h0c-.05-.1-.09-.2-.12-.3-.04-.09-.09-.17-.11-.26h0c-.03-.11-.04-.23-.05-.35-.01-.09-.04-.18-.04-.26v-63.04l-13.63-7.85-9.87-5.68h0ZM30.55,5.06L7.06,18.59l23.49,13.53,23.49-13.53L30.55,5.06h0ZM42.77,89.47l13.63-7.85V22.65l-9.87,5.68-13.63,7.85v58.97l9.87-5.68ZM115.16,21.02l-23.49,13.53,23.49,13.53,23.49-13.53-23.49-13.52ZM112.81,52.14l-13.63-7.85-9.87-5.68v26.77l13.63,7.85,9.87,5.68v-26.77ZM58.75,112.48l34.46-19.67,17.23-9.83-23.48-13.52-27.03,15.56-24.63,14.18,23.46,13.28Z"/>
  </g>
</svg>