<?xml version="1.0" encoding="UTF-8"?>
<svg id="Layer_2" data-name="Layer 2" xmlns="http://www.w3.org/2000/svg" xmlns:xlink="http://www.w3.org/1999/xlink" viewBox="0 0 237.63 125">
  <defs>
    <style>
      .cls-1 {
        clip-path: url(#clippath);
      }

      .cls-2 {
        fill: none;
      }

      .cls-2, .cls-3, .cls-4, .cls-5, .cls-6 {
        stroke-width: 0px;
      }

      .cls-3 {
        fill: url(#radial-gradient);
      }

      .cls-4 {
        fill: #000;
      }

      .cls-5 {
        fill: #777bb3;
      }

      .cls-6 {
        fill: #fff;
      }
    </style>
    <clipPath id="clippath">
      <path class="cls-2" d="M0,62.5c0,34.52,53.2,62.5,118.81,62.5h0c65.62,0,118.81-27.98,118.81-62.5h0C237.63,27.98,184.43,0,118.81,0h0C53.2,0,0,27.98,0,62.5"/>
    </clipPath>
    <radialGradient id="radial-gradient" cx="-479.46" cy="213.43" fx="-479.46" fy="213.43" r=".37" gradientTransform="translate(203154.41 90424.09) scale(423.57 -423.57)" gradientUnits="userSpaceOnUse">
      <stop offset="0" stop-color="#aeb2d5"/>
      <stop offset=".3" stop-color="#aeb2d5"/>
      <stop offset=".75" stop-color="#484c89"/>
      <stop offset="1" stop-color="#484c89"/>
    </radialGradient>
  </defs>
  <g id="Layer_1-2" data-name="Layer 1">
    <g>
      <g class="cls-1">
        <g id="g3442">
          <g id="g3448">
            <g id="g3450">
              <path id="path3462" class="cls-3" d="M0,62.5c0,34.52,53.2,62.5,118.81,62.5h0c65.62,0,118.81-27.98,118.81-62.5h0C237.63,27.98,184.43,0,118.81,0h0C53.2,0,0,27.98,0,62.5"/>
            </g>
          </g>
        </g>
      </g>
      <g id="g3466">
        <g id="g3472">
          <path id="path3474" class="cls-5" d="M118.81,120.36c63.05,0,114.17-25.9,114.17-57.86S181.87,4.64,118.81,4.64,4.64,30.55,4.64,62.5s51.12,57.86,114.17,57.86"/>
        </g>
      </g>
      <g id="g3478">
        <g id="g3484">
          <path id="path3486" class="cls-4" d="M64.55,69.67c5.18,0,9.06-.96,11.5-2.84,2.42-1.87,4.1-5.1,4.97-9.61.82-4.21.51-7.16-.93-8.74-1.46-1.62-4.63-2.44-9.41-2.44h-8.29l-4.59,23.64h6.74ZM37.45,98.79c-.38,0-.75-.17-.99-.47-.24-.3-.34-.69-.27-1.07l12.17-62.63c.12-.61.65-1.04,1.27-1.04h26.24c8.25,0,14.38,2.24,18.24,6.66,3.88,4.44,5.08,10.65,3.56,18.44-.62,3.18-1.68,6.13-3.15,8.77-1.48,2.65-3.43,5.09-5.81,7.28-2.84,2.66-6.06,4.59-9.56,5.73-3.44,1.12-7.86,1.69-13.13,1.69h-10.62l-3.03,15.61c-.12.61-.65,1.04-1.27,1.04h-13.64Z"/>
        </g>
        <g id="g3488">
          <path id="path3490" class="cls-6" d="M63.47,47.33h7.22c5.77,0,7.77,1.27,8.45,2.02,1.13,1.25,1.34,3.89.62,7.64-.82,4.19-2.33,7.16-4.49,8.83-2.22,1.71-5.82,2.57-10.72,2.57h-5.17l4.09-21.06ZM75.86,32.29h-26.24c-1.23,0-2.3.87-2.53,2.09l-12.17,62.63c-.15.76.05,1.54.54,2.13.49.59,1.22.94,1.99.94h13.64c1.23,0,2.3-.87,2.53-2.09l2.83-14.57h9.56c5.41,0,9.96-.59,13.53-1.75,3.67-1.19,7.05-3.21,10.04-6.01,2.47-2.27,4.51-4.83,6.05-7.59,1.54-2.76,2.65-5.84,3.3-9.15,1.6-8.21.3-14.78-3.85-19.54-4.11-4.71-10.58-7.1-19.21-7.1M56.25,70.96h8.3c5.5,0,9.6-1.04,12.29-3.11,2.69-2.07,4.51-5.53,5.45-10.38.9-4.65.49-7.94-1.23-9.85-1.73-1.91-5.18-2.87-10.37-2.87h-9.35l-5.09,26.21M75.86,34.87c7.89,0,13.65,2.07,17.27,6.21,3.62,4.14,4.71,9.93,3.26,17.35-.59,3.06-1.6,5.85-3.01,8.39-1.42,2.53-3.27,4.85-5.55,6.95-2.72,2.55-5.75,4.37-9.08,5.45-3.33,1.09-7.57,1.63-12.73,1.63h-11.69l-3.24,16.65h-13.64l12.17-62.63h26.24"/>
        </g>
        <g id="g3492">
          <path id="path3494" class="cls-4" d="M128.95,82.14c-.39,0-.75-.17-.99-.47-.25-.3-.34-.69-.27-1.07l5.38-27.71c.51-2.64.39-4.53-.36-5.33-.45-.49-1.82-1.31-5.85-1.31h-9.76l-6.77,34.84c-.12.61-.65,1.04-1.27,1.04h-13.54c-.39,0-.75-.17-.99-.47-.24-.3-.34-.69-.27-1.07l12.17-62.63c.12-.61.65-1.04,1.27-1.04h13.54c.39,0,.75.17.99.47.24.3.34.69.27,1.07l-2.94,15.12h10.49c8,0,13.42,1.41,16.57,4.31,3.22,2.96,4.22,7.69,2.99,14.06l-5.66,29.15c-.12.61-.65,1.04-1.27,1.04h-13.75Z"/>
        </g>
        <g id="g3496">
          <path id="path3498" class="cls-6" d="M121.25,15.63h-13.54c-1.23,0-2.3.87-2.53,2.09l-12.17,62.63c-.15.76.05,1.54.54,2.13s1.22.94,1.99.94h13.54c1.23,0,2.3-.87,2.53-2.09l6.57-33.8h8.69c4.02,0,4.87.86,4.9.9.24.26.57,1.48.04,4.2l-5.38,27.71c-.15.76.05,1.54.54,2.13s1.22.94,1.99.94h13.75c1.23,0,2.3-.87,2.53-2.09l5.66-29.15c1.33-6.84.19-11.97-3.38-15.26-3.41-3.13-9.11-4.65-17.45-4.65h-8.93l2.64-13.58c.15-.76-.05-1.54-.54-2.13-.49-.59-1.22-.94-1.99-.94M121.25,18.21l-3.24,16.65h12.06c7.59,0,12.82,1.32,15.7,3.97,2.88,2.65,3.74,6.94,2.59,12.87l-5.66,29.15h-13.75l5.38-27.71c.61-3.15.39-5.3-.68-6.45-1.06-1.15-3.33-1.72-6.79-1.72h-10.82l-6.97,35.88h-13.54l12.17-62.63h13.54"/>
        </g>
        <g id="g3500">
          <path id="path3502" class="cls-4" d="M171.05,69.67c5.18,0,9.06-.96,11.5-2.84,2.42-1.87,4.1-5.1,4.97-9.61.82-4.21.51-7.16-.93-8.74-1.46-1.62-4.63-2.44-9.41-2.44h-8.29l-4.59,23.64h6.74ZM143.95,98.79c-.38,0-.75-.17-.99-.47-.24-.3-.34-.69-.27-1.07l12.17-62.63c.12-.61.65-1.04,1.27-1.04h26.24c8.25,0,14.38,2.24,18.24,6.66,3.88,4.44,5.08,10.64,3.56,18.44-.62,3.18-1.68,6.13-3.16,8.77-1.48,2.65-3.43,5.09-5.81,7.28-2.84,2.66-6.06,4.59-9.56,5.73-3.44,1.12-7.86,1.69-13.13,1.69h-10.62l-3.03,15.61c-.12.61-.65,1.04-1.27,1.04h-13.64Z"/>
        </g>
        <g id="g3504">
          <path id="path3506" class="cls-6" d="M169.97,47.33h7.22c5.77,0,7.77,1.27,8.45,2.02,1.13,1.25,1.34,3.89.62,7.63-.82,4.19-2.33,7.16-4.49,8.83-2.22,1.71-5.82,2.57-10.72,2.57h-5.17l4.09-21.06ZM182.36,32.29h-26.24c-1.23,0-2.3.87-2.53,2.09l-12.17,62.63c-.15.76.05,1.54.54,2.13.49.59,1.22.94,1.99.94h13.64c1.23,0,2.3-.87,2.53-2.09l2.83-14.57h9.56c5.41,0,9.96-.59,13.53-1.75,3.67-1.19,7.05-3.21,10.04-6.01,2.47-2.27,4.51-4.83,6.05-7.59,1.54-2.76,2.65-5.84,3.3-9.15,1.6-8.21.3-14.78-3.85-19.54-4.11-4.71-10.58-7.1-19.21-7.1M162.75,70.96h8.3c5.5,0,9.6-1.04,12.29-3.11,2.69-2.07,4.51-5.53,5.45-10.38.9-4.65.49-7.94-1.23-9.85-1.73-1.91-5.18-2.87-10.37-2.87h-9.35l-5.09,26.21M182.36,34.87c7.89,0,13.65,2.07,17.27,6.21,3.62,4.14,4.71,9.93,3.26,17.35-.59,3.06-1.6,5.85-3.01,8.39-1.42,2.53-3.27,4.85-5.55,6.95-2.72,2.55-5.75,4.37-9.08,5.45-3.33,1.09-7.57,1.63-12.73,1.63h-11.69l-3.24,16.65h-13.64l12.17-62.63h26.24"/>
        </g>
      </g>
    </g>
  </g>
</svg>